# xmcd
#
# Track frame offsets:
#	150
#	22491
#	36982
#	54853
#	69334
#	88458
#	111765
#	130400
#	141093
#	168458
#	181943
#	196229
#	210350
#
# Disc length: 3092 seconds
# Revision: 0
# Processed by: cddbd v1.5.2PL0 Copyright (c) Steve Scherf et al.
# Submitted via: dBpowerAMP V12.0
#
DISCID=bd0c120d
DTITLE=The Teresa Law Band - Ancient Brethren
DYEAR=2017
DGENRE=Roots
TTITLE0=Ancient Brethren
TTITLE1=Where the Sun Don't Shine
TTITLE2=Breathe the Wind
TTITLE3=Mother Nature Calling
TTITLE4=Long Lost Friend
TTITLE5=Both Sides Now
TTITLE6=The Backwater Band
TTITLE7=The Hop
TTITLE8=The Carver
TTITLE9=Rather Be Alone
TTITLE10=The Raven
TTITLE11=The Quest
TTITLE12=Mountain Burning
EXTD=
EXTT0=
EXTT1=
EXTT2=
EXTT3=
EXTT4=
EXTT5=
EXTT6=
EXTT7=
EXTT8=
EXTT9=
EXTT10=
EXTT11=
EXTT12=
PLAYORDER=
